<svg width="130" height="60" viewBox="0 0 130 60" fill="none" xmlns="http://www.w3.org/2000/svg">
<path d="M114.745 7.90642C116.78 7.90642 118.484 8.58486 119.858 9.94174C121.233 11.2986 121.92 13.3339 121.92 16.0477V28.1813H116.885L116.846 16.7131C116.846 15.3823 116.515 14.3907 115.855 13.7384C115.22 13.086 114.335 12.7599 113.199 12.7599C112.3 12.7599 111.454 13.0469 110.662 13.621C109.895 14.195 109.235 14.8735 108.68 15.6563V28.1813H103.645V0H108.68V11.2334C109.287 10.4245 110.107 9.66776 111.137 8.96322C112.194 8.25869 113.397 7.90642 114.745 7.90642Z" fill="white"/>
<path d="M93.5558 2.66157V8.41525H99.1056V12.5642H93.5558V21.0968C93.5558 21.984 93.754 22.6886 94.1504 23.2104C94.5733 23.7062 95.1943 23.9541 96.0135 23.9541C96.7271 23.9541 97.3349 23.8758 97.837 23.7193C98.3656 23.5627 98.8545 23.3409 99.3037 23.0539V27.0071C98.8016 27.5029 98.1674 27.9204 97.401 28.2596C96.661 28.5988 95.7229 28.7684 94.5865 28.7684C92.7894 28.7684 91.3227 28.2074 90.1863 27.0854C89.0764 25.9372 88.5214 24.3716 88.5214 22.3885V12.5642H84.9141V10.02C86.1826 9.57643 87.3454 8.74143 88.4025 7.51502C89.486 6.28861 90.3449 4.67079 90.9791 2.66157H93.5558Z" fill="white"/>
<path d="M80.969 0V28.1813H75.9346V0H80.969Z" fill="white"/>
<path d="M59.463 7.90642C60.5465 7.90642 61.6433 8.15432 62.7532 8.6501C63.8632 9.14588 64.7881 9.81127 65.5281 10.6463V8.41525H70.5625V28.1813H65.5281V24.8544C64.9467 25.9242 64.101 26.8505 62.9911 27.6333C61.8811 28.3901 60.5862 28.7684 59.1062 28.7684C57.4942 28.7684 56.001 28.364 54.6268 27.5551C53.279 26.7462 52.1955 25.5719 51.3763 24.0324C50.557 22.4929 50.1474 20.6272 50.1474 18.4353C50.1474 16.2434 50.557 14.3646 51.3763 12.799C52.2219 11.2334 53.3451 10.0331 54.7457 9.19807C56.1728 8.33697 57.7452 7.90642 59.463 7.90642ZM60.4937 12.7599C59.4366 12.7599 58.5248 13.0339 57.7584 13.5818C57.0185 14.1037 56.4371 14.7952 56.0142 15.6563C55.5914 16.5174 55.38 17.4437 55.38 18.4353C55.38 19.9226 55.8293 21.1882 56.7278 22.2319C57.6527 23.2757 58.8684 23.7976 60.3748 23.7976C61.2733 23.7976 62.1057 23.5627 62.8721 23.093C63.665 22.6233 64.2992 21.971 64.7749 21.136C65.277 20.2749 65.5281 19.2442 65.5281 18.0439V15.2257C64.8145 14.469 64.0349 13.8689 63.1893 13.4253C62.37 12.9817 61.4715 12.7599 60.4937 12.7599Z" fill="white"/>
<path d="M38.3138 7.90642C40.2694 7.90642 41.9475 8.32393 43.3482 9.15893C44.7752 9.99393 45.8588 11.1551 46.5987 12.6425C47.3651 14.1037 47.7483 15.7998 47.7483 17.7307V19.8443H33.2397C33.504 21.1751 34.1647 22.245 35.2218 23.0539C36.2789 23.8628 37.5738 24.2672 39.1066 24.2672C40.5601 24.2672 41.8815 23.9802 43.0707 23.4061C44.2599 22.8321 45.2113 22.245 45.9248 21.6448L45.8852 26.2634C45.2509 26.8114 44.2996 27.3724 43.031 27.9465C41.789 28.4944 40.4147 28.7684 38.9084 28.7684C36.9263 28.7684 35.1161 28.3248 33.4776 27.4376C31.8655 26.5505 30.5706 25.3371 29.5928 23.7976C28.6414 22.258 28.1657 20.4967 28.1657 18.5136C28.1657 16.5826 28.6017 14.8213 29.4738 13.2296C30.3459 11.6378 31.5484 10.3592 33.0812 9.39377C34.6139 8.40221 36.3582 7.90642 38.3138 7.90642ZM38.1948 12.251C36.9528 12.251 35.9089 12.6294 35.0632 13.3861C34.2175 14.1428 33.6361 15.1605 33.319 16.4391H42.9121C42.8064 15.03 42.2779 13.9863 41.3265 13.3078C40.3751 12.6033 39.3312 12.251 38.1948 12.251Z" fill="white"/>
<path d="M5.51009 1.95704V12.6425H17.8384V1.95704H23.3089V28.1813H17.8384V17.535H5.51009V28.1813H0V1.95704H5.51009Z" fill="white"/>
<path d="M102.912 53.1169C101.271 55.3499 99.6558 57.0553 98.0653 58.2332C96.4996 59.4111 94.8966 60 93.2563 60C91.6409 60 90.5474 59.8405 89.9758 59.5215V51.4237C88.5592 55.1536 86.5835 57.7424 84.0485 59.1902C83.129 59.7301 82.2343 60 81.3644 60C79.6993 60 78.5064 59.8405 77.7857 59.5215C77.6117 53.9021 77.4502 50.3194 77.3011 48.7735C77.1519 47.203 77.0153 45.9392 76.891 44.9822C76.6425 43.0682 76.0957 41.7186 75.2507 40.9333C76.3194 40.1481 77.5993 39.7555 79.0904 39.7555C81.9733 39.7555 83.6136 41.5223 84.0112 45.0558C84.1106 45.8902 84.1603 46.749 84.1603 47.6324C84.1603 48.9575 84.0112 51.9267 83.713 56.54C84.3094 56.2701 84.9183 55.6566 85.5396 54.6996C86.1858 53.7181 86.7698 52.5647 87.2917 51.2396C88.4598 48.1723 89.0438 45.3135 89.0438 42.6633C89.0438 42.2462 88.9817 41.8167 88.8575 41.375C88.758 40.9333 88.6462 40.6511 88.5219 40.5284C89.3918 40.0131 90.4853 39.7555 91.8025 39.7555C93.1445 39.7555 94.1262 40.2094 94.7475 41.1174C95.3936 42.0008 95.8037 43.2645 95.9777 44.9086C96.1765 46.9944 96.2759 48.6631 96.2759 49.9145C96.2759 51.6568 96.1889 53.8162 96.015 56.3928C97.2576 55.5094 98.3884 53.6199 99.4073 50.7243C100.426 47.8287 100.936 45.3503 100.936 43.2891C100.936 42.3811 100.861 41.6572 100.712 41.1174C101.532 40.2094 102.651 39.7555 104.067 39.7555C104.937 39.7555 105.683 39.9886 106.304 40.4548C106.95 40.9211 107.273 41.5959 107.273 42.4793C107.273 43.3381 107.136 44.2338 106.863 45.1663C106.615 46.0988 106.279 47.0435 105.857 48.0005C105.036 49.9145 104.055 51.62 102.912 53.1169Z" fill="white"/>
<path d="M61.4582 60C55.9907 60 53.2569 57.4602 53.2569 52.3807C53.2569 48.7735 54.2634 45.8043 56.2765 43.4731C58.4138 40.9947 61.3339 39.7555 65.037 39.7555C67.721 39.7555 69.7465 40.3689 71.1134 41.5959C72.4803 42.8228 73.1637 44.7246 73.1637 47.3012C73.1637 51.2274 72.0951 54.3315 69.9577 56.6136C67.8701 58.8712 65.037 60 61.4582 60ZM62.4275 43.9884C62.1292 44.651 61.8558 45.4853 61.6073 46.4914C61.3836 47.4729 61.1227 48.7489 60.8245 50.3194C60.5262 51.8899 60.3771 53.6444 60.3771 55.583C60.3771 56.221 60.4765 56.7486 60.6754 57.1658C60.899 57.5829 61.2967 57.7915 61.8683 57.7915C62.4399 57.7915 62.8996 57.6565 63.2476 57.3866C63.6204 57.1167 63.9434 56.6627 64.2168 56.0247C64.7139 54.8959 65.1612 53.2886 65.5589 51.2028C65.9565 49.0925 66.1677 47.5834 66.1926 46.6754C66.2423 45.7675 66.2672 44.9822 66.2672 44.3197C66.2672 43.6326 66.1677 43.0682 65.9689 42.6265C65.7701 42.1848 65.3849 41.964 64.8133 41.964C64.2665 41.964 63.8068 42.1357 63.434 42.4793C63.0612 42.8228 62.7257 43.3259 62.4275 43.9884Z" fill="white"/>
<path d="M50.1546 57.2394C49.3842 59.0798 47.7688 60 45.3084 60C44.0658 60 43.0468 59.5706 42.2515 58.7117C41.6054 58.0001 41.2823 57.2394 41.2823 56.4296C41.2823 54.5892 41.7172 51.6568 42.587 47.6324L45.3084 33.4981L52.876 32.7619L49.2599 51.3869C48.8374 53.2027 48.6262 54.4297 48.6262 55.0677C48.6262 56.4664 49.1357 57.1903 50.1546 57.2394Z" fill="white"/>
<path d="M39.409 46.749C37.6197 50.6262 36.725 54.81 36.725 59.3006C36.054 59.7669 35.2214 60 34.2273 60C33.2581 60 32.4628 59.7669 31.8415 59.3006C31.2201 58.8589 30.8474 58.405 30.7231 57.9387C30.1018 58.5767 29.2817 59.0798 28.2627 59.4479C27.2686 59.816 26.2372 60 25.1686 60C24.0999 60 23.0934 59.8282 22.149 59.4847C21.2295 59.1411 20.4093 58.589 19.6886 57.8283C18.0981 56.1597 17.3028 53.7426 17.3028 50.5771C17.3028 45.6693 18.6324 41.7431 21.2916 38.7984C24.0254 35.7556 27.8154 34.2342 32.6616 34.2342C36.0167 34.2342 38.2907 35.0931 39.4836 36.8108C39.8564 37.3507 40.0428 37.9519 40.0428 38.6144C40.0428 39.2524 39.8937 39.8536 39.5954 40.418C39.322 40.9579 38.9617 41.4486 38.5143 41.8903C37.4457 42.8719 36.2528 43.3627 34.9356 43.3627C34.4137 43.3627 33.9042 43.2768 33.4072 43.105C33.5066 42.3689 33.5563 41.5713 33.5563 40.7125C33.5563 39.8536 33.519 39.2279 33.4444 38.8353C33.3947 38.4426 33.2953 38.0868 33.1462 37.7678C32.8231 37.1053 32.3012 36.774 31.5805 36.774C30.8846 36.774 30.1391 37.1543 29.3438 37.9151C28.5734 38.6512 27.8775 39.6328 27.2562 40.8597C25.8893 43.6081 25.2059 46.6386 25.2059 49.9513C25.2059 51.4728 25.5041 52.7733 26.1005 53.853C26.7467 55.0309 27.6414 55.6198 28.7846 55.6198C29.1822 55.6198 29.555 55.5217 29.903 55.3253C30.2758 55.129 30.5367 54.9573 30.6858 54.81L31.8787 47.4116L39.409 46.749Z" fill="white"/>
<path d="M116.903 26.5454H121.973V34.4714H116.903V26.5454Z" fill="#FECA00"/>
<path d="M130 34.4714V39.4774H121.973V34.4714H130Z" fill="#FECA00"/>
<path d="M116.903 34.4714V39.4774H108.875V34.4714H116.903Z" fill="#FECA00"/>
<path d="M121.973 47.4034H116.903V39.4774H121.973V47.4034Z" fill="#FECA00"/>
</svg>
