<svg width="24" height="24" viewBox="0 0 24 24" fill="none" xmlns="http://www.w3.org/2000/svg">
<path d="M13.9289 9.95059V12.8031C13.9289 12.8835 13.8485 12.9237 13.7682 12.9237H13.3262C13.2861 12.9237 13.2459 12.8835 13.2057 12.8835L11.92 11.1157V12.8031C11.92 12.8835 11.8397 12.9237 11.7995 12.9237H11.3174C11.237 12.9237 11.1969 12.8835 11.1969 12.8031V9.95059C11.1969 9.87023 11.237 9.83006 11.3174 9.83006H11.7995C11.8397 9.83006 11.8799 9.83006 11.8799 9.87023L13.2057 11.638V9.95059C13.2057 9.87023 13.2459 9.83006 13.3262 9.83006H13.7682C13.8485 9.78988 13.9289 9.87023 13.9289 9.95059ZM10.6344 9.78988C10.6746 9.78988 10.7549 9.87023 10.7549 9.95059V12.8031C10.7549 12.8835 10.6746 12.9237 10.6344 12.9237H10.1523C10.0719 12.9237 10.0317 12.8835 10.0317 12.8031V9.95059C10.0317 9.87023 10.0719 9.78988 10.1523 9.78988H10.6344ZM9.50944 12.2005C9.58979 12.2005 9.62997 12.2808 9.62997 12.321V12.8031C9.62997 12.8433 9.58979 12.9237 9.50944 12.9237H7.6613C7.62113 12.9237 7.62113 12.8835 7.58095 12.8835C7.58095 12.8433 7.54077 12.8433 7.54077 12.8031V9.95059C7.54077 9.87023 7.62113 9.78988 7.6613 9.78988H8.14343C8.22378 9.78988 8.26396 9.87023 8.26396 9.95059V12.2005H9.50944ZM16.3395 9.78988C16.3797 9.78988 16.46 9.87023 16.46 9.95059V10.3925C16.46 10.4729 16.3797 10.5131 16.3395 10.5131H15.094V10.9952H16.3395C16.3797 10.9952 16.46 11.0755 16.46 11.1157V11.5978C16.46 11.6782 16.3797 11.7184 16.3395 11.7184H15.094V12.2005H16.3395C16.3797 12.2005 16.46 12.2808 16.46 12.321V12.8031C16.46 12.8835 16.3797 12.9237 16.3395 12.9237H14.4914C14.411 12.9237 14.3708 12.8433 14.3708 12.8031V9.95059C14.3708 9.87023 14.411 9.78988 14.4914 9.78988H16.3395ZM21 6.2945V17.7449C20.9598 19.5528 19.5135 21.0394 17.7055 20.9992H6.25512C4.44716 20.9992 2.96062 19.5528 3.0008 17.7449V6.25432C3.0008 4.48654 4.44716 3 6.25512 3H17.7457C19.5135 3.04018 21 4.48654 21 6.2945ZM18.509 11.2362C18.509 8.30334 15.5761 5.89273 11.9602 5.89273C8.34431 5.89273 5.4114 8.30334 5.4114 11.2362C5.4114 13.8477 7.74166 16.0575 10.8754 16.4592C11.6388 16.6199 11.5585 16.9012 11.3977 17.9458C11.3576 18.1065 11.237 18.5886 11.9602 18.3074C12.6432 18.0261 15.7368 16.0976 17.1029 14.4906C18.0671 13.446 18.509 12.4014 18.509 11.2362Z" fill="white"/>
</svg>
